<?xml version="1.0" standalone="no"?><!DOCTYPE svg PUBLIC "-//W3C//DTD SVG 1.1//EN" "http://www.w3.org/Graphics/SVG/1.1/DTD/svg11.dtd"><svg t="1725866324134" class="icon" viewBox="0 0 1024 1024" version="1.1" xmlns="http://www.w3.org/2000/svg" p-id="4511" xmlns:xlink="http://www.w3.org/1999/xlink" width="200" height="200"><path d="M1023.988 512c0 282.774-229.246 511.988-511.988 511.988C229.242 1023.988 0.012 794.774 0.012 512S229.242 0.012 512 0.012C794.742 0.012 1023.988 229.226 1023.988 512z" fill="#ED5564" p-id="4512"></path><path d="M512 0.012a521 521 0 0 0-42.67 1.75C732.118 23.45 938.676 243.6 938.676 512c0 268.398-206.558 488.55-469.346 510.238 14.078 1.156 28.296 1.75 42.67 1.75 282.742 0 511.988-229.214 511.988-511.988S794.742 0.012 512 0.012z" fill="#FFFFFF" opacity=".2" p-id="4513"></path><path d="M268.334 519.25c-3.734-52.906 15.374-63.218 44.328-78.812 27.39-14.748 64.888-34.966 66.388-98.59 1.204-51.376-34.234-109.684-105.294-173.372-28.422-25.468-56.702-46.532-76.452-60.342a511.224 511.224 0 0 0-33.64 28.654c18.25 12.376 50.092 35.218 81.624 63.466 60.484 54.188 91.982 102.81 91.108 140.592-0.922 38.844-18.046 48.062-43.984 62.03-30.514 16.468-72.31 38.998-66.638 119.374 2.5 35.374 20.984 66.124 54.936 91.34 25.016 18.594 58.64 34.188 99.982 46.406 68.592 20.282 134.95 24.468 137.748 24.624l2.562-42.594c-0.64-0.032-64.858-4.124-128.84-23.124-54.424-16.156-120.078-46.56-123.828-99.652z" fill="#EAC6BB" p-id="4514"></path><path d="M731.586 521.532l-90.964-148.902a38.85 38.85 0 0 0-2.938-4.624l-35.312 23.876 0.5 0.844c1.25 5.966-3.906 29.592-24.812 58.028-22.218 30.188-49.012 48.218-71.714 48.218-1.016 0-2.046-0.032-3.062-0.124l-91.53-35.5-41.358 71.594 67.764 64.934c-25.656 25.968-35.374 56.468-41.078 74.376-0.532 1.624-1.11 3.468-1.64 5.062-2.484 0.812-3.546 0.876-3.828 0.876-0.704-0.124-3.124-1.25-4.89-2.062-7.204-3.312-18.094-8.344-37.624-10.468a53.79 53.79 0 0 0-5.938-0.312c-21.656 0-44.608 12.406-68.232 36.906-15.876 16.466-26.64 32.842-27.094 33.53l-9.124 13.938 70.718 76.404 41.312-17.938c37.514 39.782 84.154 60.686 135.778 60.686 45.594 0 93.2-16.154 137.7-46.716 41.062-28.218 76.656-67.188 100.152-109.748 38.152-69.038 40.808-139.35 7.214-192.878z" fill="#DBADA2" p-id="4515"></path><path d="M653.934 155.758c-110.902 0-201.136 90.248-201.136 201.184 0 110.902 90.234 201.15 201.136 201.15 110.934 0 201.184-90.248 201.184-201.15 0-110.936-90.25-201.184-201.184-201.184z" fill="#EAC6BB" p-id="4516"></path></svg>